<svg width="95" height="95" viewBox="0 0 95 95" fill="none" xmlns="http://www.w3.org/2000/svg">
<path d="M37.6042 65.3126L65.3126 47.5001L37.6042 29.6876V65.3126ZM47.5001 87.0834C42.0244 87.0834 36.8786 86.0437 32.0626 83.9642C27.2466 81.8848 23.0574 79.0652 19.4949 75.5053C15.9324 71.9428 13.1127 67.7536 11.0359 62.9376C8.95911 58.1216 7.91939 52.9758 7.91675 47.5001C7.91675 42.0244 8.95647 36.8786 11.0359 32.0626C13.1154 27.2466 15.935 23.0574 19.4949 19.4949C23.0574 15.9324 27.2466 13.1127 32.0626 11.0359C36.8786 8.95911 42.0244 7.91939 47.5001 7.91675C52.9758 7.91675 58.1216 8.95647 62.9376 11.0359C67.7536 13.1154 71.9428 15.935 75.5053 19.4949C79.0678 23.0574 81.8888 27.2466 83.9682 32.0626C86.0476 36.8786 87.0861 42.0244 87.0834 47.5001C87.0834 52.9758 86.0437 58.1216 83.9642 62.9376C81.8848 67.7536 79.0652 71.9428 75.5053 75.5053C71.9428 79.0678 67.7536 81.8888 62.9376 83.9682C58.1216 86.0476 52.9758 87.0861 47.5001 87.0834Z" fill="#BDBDBD" fill-opacity="0.87"/>
</svg>
