<svg width="18" height="18" viewBox="0 0 18 18" fill="none" xmlns="http://www.w3.org/2000/svg">
<path d="M9 0.0625C7.23233 0.0625 5.50436 0.586675 4.0346 1.56874C2.56483 2.55081 1.41929 3.94665 0.742831 5.57977C0.0663725 7.21288 -0.11062 9.00992 0.234236 10.7436C0.579091 12.4773 1.43031 14.0698 2.68024 15.3198C3.93017 16.5697 5.52268 17.4209 7.25638 17.7658C8.99009 18.1106 10.7871 17.9336 12.4202 17.2572C14.0534 16.5807 15.4492 15.4352 16.4313 13.9654C17.4133 12.4956 17.9375 10.7677 17.9375 9C17.935 6.6304 16.9926 4.35856 15.317 2.683C13.6414 1.00743 11.3696 0.0650023 9 0.0625ZM9.6875 16.5307V11.0625H11.75C11.9323 11.0625 12.1072 10.9901 12.2361 10.8611C12.3651 10.7322 12.4375 10.5573 12.4375 10.375C12.4375 10.1927 12.3651 10.0178 12.2361 9.88886C12.1072 9.75993 11.9323 9.6875 11.75 9.6875H9.6875V7.625C9.6875 7.26033 9.83237 6.91059 10.0902 6.65273C10.3481 6.39487 10.6978 6.25 11.0625 6.25H12.4375C12.6198 6.25 12.7947 6.17757 12.9236 6.04864C13.0526 5.9197 13.125 5.74484 13.125 5.5625C13.125 5.38016 13.0526 5.2053 12.9236 5.07636C12.7947 4.94743 12.6198 4.875 12.4375 4.875H11.0625C10.3332 4.875 9.63369 5.16473 9.11796 5.68046C8.60224 6.19618 8.3125 6.89565 8.3125 7.625V9.6875H6.25C6.06767 9.6875 5.8928 9.75993 5.76387 9.88886C5.63494 10.0178 5.5625 10.1927 5.5625 10.375C5.5625 10.5573 5.63494 10.7322 5.76387 10.8611C5.8928 10.9901 6.06767 11.0625 6.25 11.0625H8.3125V16.5307C6.37444 16.3538 4.57917 15.4365 3.30015 13.9697C2.02112 12.5029 1.35678 10.5995 1.44534 8.65541C1.53389 6.7113 2.36851 4.87616 3.77559 3.53172C5.18266 2.18727 7.05388 1.43702 9 1.43702C10.9461 1.43702 12.8173 2.18727 14.2244 3.53172C15.6315 4.87616 16.4661 6.7113 16.5547 8.65541C16.6432 10.5995 15.9789 12.5029 14.6999 13.9697C13.4208 15.4365 11.6256 16.3538 9.6875 16.5307Z" fill="black"/>
</svg>
