<svg width="18" height="18" viewBox="0 0 18 18" fill="none" xmlns="http://www.w3.org/2000/svg">
<path d="M9 4.875C8.18415 4.875 7.38663 5.11693 6.70827 5.57019C6.02992 6.02345 5.50121 6.66769 5.189 7.42143C4.87679 8.17518 4.7951 9.00458 4.95426 9.80475C5.11343 10.6049 5.50629 11.3399 6.08318 11.9168C6.66008 12.4937 7.39508 12.8866 8.19525 13.0457C8.99542 13.2049 9.82482 13.1232 10.5786 12.811C11.3323 12.4988 11.9766 11.9701 12.4298 11.2917C12.8831 10.6134 13.125 9.81585 13.125 9C13.1239 7.90633 12.6889 6.85778 11.9156 6.08444C11.1422 5.3111 10.0937 4.87614 9 4.875ZM9 11.75C8.4561 11.75 7.92442 11.5887 7.47218 11.2865C7.01995 10.9844 6.66747 10.5549 6.45933 10.0524C6.25119 9.54988 6.19673 8.99695 6.30284 8.4635C6.40895 7.93005 6.67086 7.44005 7.05546 7.05546C7.44005 6.67086 7.93005 6.40895 8.4635 6.30284C8.99695 6.19673 9.54988 6.25119 10.0524 6.45933C10.5549 6.66747 10.9844 7.01995 11.2865 7.47218C11.5887 7.92442 11.75 8.4561 11.75 9C11.75 9.72935 11.4603 10.4288 10.9445 10.9445C10.4288 11.4603 9.72935 11.75 9 11.75ZM13.125 0.0625H4.875C3.59906 0.0638649 2.37578 0.571333 1.47356 1.47356C0.571333 2.37578 0.0638649 3.59906 0.0625 4.875V13.125C0.0638649 14.4009 0.571333 15.6242 1.47356 16.5264C2.37578 17.4287 3.59906 17.9361 4.875 17.9375H13.125C14.4009 17.9361 15.6242 17.4287 16.5264 16.5264C17.4287 15.6242 17.9361 14.4009 17.9375 13.125V4.875C17.9361 3.59906 17.4287 2.37578 16.5264 1.47356C15.6242 0.571333 14.4009 0.0638649 13.125 0.0625ZM16.5625 13.125C16.5625 14.0367 16.2003 14.911 15.5557 15.5557C14.911 16.2003 14.0367 16.5625 13.125 16.5625H4.875C3.96332 16.5625 3.08898 16.2003 2.44432 15.5557C1.79966 14.911 1.4375 14.0367 1.4375 13.125V4.875C1.4375 3.96332 1.79966 3.08898 2.44432 2.44432C3.08898 1.79966 3.96332 1.4375 4.875 1.4375H13.125C14.0367 1.4375 14.911 1.79966 15.5557 2.44432C16.2003 3.08898 16.5625 3.96332 16.5625 4.875V13.125ZM14.5 4.53125C14.5 4.73521 14.4395 4.93459 14.3262 5.10418C14.2129 5.27377 14.0518 5.40595 13.8634 5.484C13.675 5.56205 13.4676 5.58248 13.2676 5.54269C13.0675 5.50289 12.8838 5.40468 12.7395 5.26045C12.5953 5.11623 12.4971 4.93248 12.4573 4.73244C12.4175 4.53239 12.4379 4.32504 12.516 4.13661C12.5941 3.94817 12.7262 3.78711 12.8958 3.6738C13.0654 3.56048 13.2648 3.5 13.4688 3.5C13.7423 3.5 14.0046 3.60865 14.198 3.80205C14.3913 3.99544 14.5 4.25775 14.5 4.53125Z" fill="black"/>
</svg>
