<svg width="22" height="18" viewBox="0 0 22 18" fill="none" xmlns="http://www.w3.org/2000/svg">
<path d="M18.0714 1.14307H3.9285C2.19275 1.14307 0.785645 2.55017 0.785645 4.28592V13.7145C0.785645 15.4502 2.19275 16.8574 3.9285 16.8574H18.0714C19.8071 16.8574 21.2142 15.4502 21.2142 13.7145V4.28592C21.2142 2.55017 19.8071 1.14307 18.0714 1.14307Z" stroke="black" stroke-linecap="round" stroke-linejoin="round"/>
<path d="M8.34426 12.6459V6.04593C8.34098 5.9345 8.36815 5.82429 8.42286 5.72716C8.47756 5.63003 8.55772 5.54966 8.65471 5.4947C8.75169 5.43974 8.86183 5.41227 8.97327 5.41526C9.0847 5.41824 9.19321 5.45157 9.28712 5.51164L14.9443 8.81164C15.0388 8.8671 15.1172 8.94631 15.1716 9.04141C15.2261 9.13651 15.2547 9.24419 15.2547 9.35378C15.2547 9.46338 15.2261 9.57106 15.1716 9.66616C15.1172 9.76126 15.0388 9.84047 14.9443 9.89593L9.28712 13.1959C9.19115 13.2513 9.08223 13.2804 8.97141 13.2802C8.86059 13.2799 8.75181 13.2504 8.65609 13.1945C8.56036 13.1387 8.4811 13.0585 8.42634 12.9622C8.37158 12.8659 8.34326 12.7567 8.34426 12.6459Z" stroke="black" stroke-linecap="round" stroke-linejoin="round"/>
</svg>
